#N canvas 297 59 1507 1142 10;
#X obj 25 36 hsl 67 12 0 1 0 0 \$0-browser_beats \$0-browser_beats-set
b:3 42 6 0 10 -191407 -262130 -262144 618 0;
#X obj 39 50 hsl 53 12 0 1 0 0 \$0-browser_offset \$0-browser_offset-set
o:7 28 6 0 10 -191407 -191407 -191407 1200 0;
#X obj 96 36 bng 12 250 50 0 \$0-bang_beats \$0-bang_beats-set + 3
6 0 10 -191407 -262144 -262130;
#X obj 96 50 bng 12 250 50 0 \$0-bang_offset \$0-bang_offset-set +
3 6 0 10 -191407 -262144 -262130;
#X obj 25 22 hsl 67 12 0 1 0 0 \$0-browser_length \$0-browser_length-set
l:8 42 6 0 10 -191407 -262130 -262144 1650 0;
#X obj 96 22 bng 12 250 50 0 \$0-bang_length \$0-bang_length-set +
3 6 0 10 -191407 -262144 -262130;
#X floatatom 114 24 5 0 0 0 - #0-length-set #0-length;
#X floatatom 114 42 5 0 0 0 - #0-beats-set #0-beats;
#X floatatom 114 60 5 0 0 0 - #0-offset-set #0-offset;
#X obj 22 50 tgl 12 0 \$0-io \$0-io-set empty 17 7 0 10 -262144 -1
-1 1 1;
#N canvas 0 59 430 686 buttons_and_sliders 0;
#X obj 11 58 r \$0-browser_length;
#X obj 11 80 * 64;
#X obj 11 102 + 0.5;
#X obj 11 124 i;
#X obj 11 146 s \$0-length-set;
#X obj 141 80 * 64;
#X obj 141 102 + 0.5;
#X obj 141 124 i;
#X obj 141 58 r \$0-browser_beats;
#X obj 141 146 s \$0-beats-set;
#X obj 261 80 * 64;
#X obj 261 102 + 0.5;
#X obj 261 124 i;
#X obj 261 58 r \$0-browser_offset;
#X obj 261 146 s \$0-offset-set;
#X obj 32 205 r \$0-bang_length;
#X obj 32 227 f;
#X obj 32 249 + 1;
#X obj 32 271 % 64;
#X obj 32 293 / 64;
#X obj 32 315 s \$0-browser_length-set;
#X obj 64 230 r \$0-length;
#X obj 182 227 f;
#X obj 182 249 + 1;
#X obj 182 271 % 64;
#X obj 182 293 / 64;
#X obj 182 205 r \$0-bang_beats;
#X obj 214 230 r \$0-beats;
#X obj 182 315 s \$0-browser_beats-set;
#X obj 326 228 f;
#X obj 326 250 + 1;
#X obj 326 272 % 64;
#X obj 326 294 / 64;
#X obj 326 206 r \$0-bang_offset;
#X obj 358 231 r \$0-offset;
#X obj 326 316 s \$0-browser_offset-set;
#X obj 12 342 r \$0-length;
#X msg 12 364 label l:\$1;
#X obj 12 386 s \$0-browser_length-set;
#X obj 12 412 r \$0-beats;
#X msg 12 434 label b:\$1;
#X obj 12 456 s \$0-browser_beats-set;
#X obj 12 482 r \$0-offset;
#X msg 12 504 label o:\$1;
#X obj 12 526 s \$0-browser_offset-set;
#X connect 0 0 1 0;
#X connect 1 0 2 0;
#X connect 2 0 3 0;
#X connect 3 0 4 0;
#X connect 5 0 6 0;
#X connect 6 0 7 0;
#X connect 7 0 9 0;
#X connect 8 0 5 0;
#X connect 10 0 11 0;
#X connect 11 0 12 0;
#X connect 12 0 14 0;
#X connect 13 0 10 0;
#X connect 15 0 16 0;
#X connect 16 0 17 0;
#X connect 17 0 18 0;
#X connect 18 0 19 0;
#X connect 19 0 20 0;
#X connect 21 0 16 1;
#X connect 22 0 23 0;
#X connect 23 0 24 0;
#X connect 24 0 25 0;
#X connect 25 0 28 0;
#X connect 26 0 22 0;
#X connect 27 0 22 1;
#X connect 29 0 30 0;
#X connect 30 0 31 0;
#X connect 31 0 32 0;
#X connect 32 0 35 0;
#X connect 33 0 29 0;
#X connect 34 0 29 1;
#X connect 36 0 37 0;
#X connect 37 0 38 0;
#X connect 39 0 40 0;
#X connect 40 0 41 0;
#X connect 42 0 43 0;
#X connect 43 0 44 0;
#X restore 20 89 pd buttons_and_sliders;
#N canvas 0 59 727 668 io_effect 0;
#X obj 52 7 r \$0-io;
#X obj 52 29 sel 0 1;
#X msg 38 83 color #b8b8b8 #b8b8b8 #b8b8b8, f 8;
#X msg 118 83 color #b8b8b8 #fcfcc4 #ffffff, f 8;
#X obj -12 287 s \$0-browser_length-set;
#X obj 0 266 s \$0-browser_beats-set;
#X obj 11 244 s \$0-browser_offset-set;
#X obj 19 224 s \$0-bang_length-set;
#X obj 36 200 s \$0-bang_beats-set;
#X obj 50 177 s \$0-bang_offset-set;
#X msg 187 85 color #b8b8b8 #ffffff #fcfcc4, f 8;
#X connect 0 0 1 0;
#X connect 1 0 2 0;
#X connect 1 1 3 0;
#X connect 1 1 10 0;
#X connect 2 0 4 0;
#X connect 2 0 6 0;
#X connect 2 0 5 0;
#X connect 2 0 9 0;
#X connect 2 0 8 0;
#X connect 2 0 7 0;
#X connect 3 0 6 0;
#X connect 3 0 5 0;
#X connect 3 0 4 0;
#X connect 10 0 9 0;
#X connect 10 0 8 0;
#X connect 10 0 7 0;
#X restore 20 110 pd io_effect;
#X obj 138 242 +;
#X obj 139 300 *;
#X obj 139 325 %;
#X obj 139 350 <;
#X obj 159 152 r \$0-length;
#X obj 168 273 r \$0-beats;
#X obj 156 196 r \$0-offset;
#X obj 124 151 f;
#X obj 124 173 + 1;
#X obj 124 195 %;
#X obj 139 374 sel 1;
#X obj 137 485 s \$1-eu_bang_\$2;
#X obj 139 396 spigot;
#X obj 382 89 r \$0-browser_length;
#X obj 512 89 r \$0-browser_beats;
#X floatatom 382 111 0 0 0 0 - - -;
#X floatatom 512 111 0 0 0 0 - - -;
#X obj 657 89 loadbang;
#X msg 651 146 0.125;
#X msg 701 153 0.046875;
#X msg 769 151 0;
#X obj 664 214 s \$0-browser_beats-set;
#X obj 687 195 s \$0-browser_offset-set;
#X msg 816 155 0;
#X obj 816 178 s \$0-io-set;
#X obj 725 87 r \$1-init;
#X obj 218 425 spigot;
#X obj 314 363 r \$0-io;
#X obj 314 385 == 0;
#X obj 651 238 s \$0-browser_length-set;
#X obj 215 364 r \$1-bang_\$2;
#X obj 236 87 r \$1-bang_fast_\$2;
#X connect 12 0 13 0;
#X connect 13 0 14 0;
#X connect 14 0 15 0;
#X connect 15 0 22 0;
#X connect 16 0 21 1;
#X connect 16 0 14 1;
#X connect 17 0 13 1;
#X connect 17 0 15 1;
#X connect 18 0 12 1;
#X connect 19 0 20 0;
#X connect 20 0 21 0;
#X connect 21 0 19 1;
#X connect 21 0 12 0;
#X connect 22 0 24 0;
#X connect 24 0 23 0;
#X connect 25 0 27 0;
#X connect 26 0 28 0;
#X connect 29 0 30 0;
#X connect 29 0 31 0;
#X connect 29 0 32 0;
#X connect 29 0 35 0;
#X connect 30 0 41 0;
#X connect 31 0 33 0;
#X connect 32 0 34 0;
#X connect 35 0 36 0;
#X connect 37 0 30 0;
#X connect 37 0 31 0;
#X connect 37 0 32 0;
#X connect 37 0 35 0;
#X connect 38 0 23 0;
#X connect 39 0 40 0;
#X connect 39 0 24 1;
#X connect 40 0 38 1;
#X connect 42 0 38 0;
#X connect 43 0 19 0;
#X coords 0 -1 1 1 90 44 1 20 20;
