#N canvas 646 127 1274 803 10;
#X obj 10 10 vradio 22 1 0 8 \$0-value \$0-value-set empty 0 -8 0 10
-191407 -245500 -262144 7;
#X obj 40 442 r \$1-select_toggle;
#X obj 41 486 sel 0 1 2 3;
#X msg 76 651 color #bbbbbb \$1 #ffffff;
#X msg 93 597 symbol #fcfcc4;
#X msg 376 548 symbol #d9ffff;
#X msg 396 571 symbol #e6ffdc;
#X msg 412 595 symbol #fef1d6;
#X obj 74 679 s \$0-value-set;
#X obj 51 135 expr 7 - $f1;
#X obj 124 160 r \$1-select_toggle;
#X obj 103 289 f;
#X obj 105 335 + \$3;
#X obj 42 419 tabwrite \$2-score_table;
#X obj 361 139 r \$1-update;
#X obj 361 228 f;
#X obj 361 274 + \$3;
#X obj 361 387 tabread \$2-score_table;
#X obj 361 410 expr 7 - $f1;
#X obj 361 433 s \$0-value-set;
#X obj 440 204 r \$1-select_toggle;
#X obj 51 158 t f b b;
#X obj 291 149 r \$1-page;
#X obj 269 215 f;
#X obj 269 238 * 32;
#X obj 105 312 * 8;
#X obj 105 358 +;
#X obj 590 192 r \$1-page;
#X obj 568 258 f;
#X obj 568 281 * 32;
#X obj 361 251 * 8;
#X obj 361 297 +;
#X obj 361 162 t b b;
#X obj 32 559 spigot;
#X obj 92 559 spigot;
#X msg 30 620 symbol #efefef;
#X obj 186 487 expr 7 - $f1;
#X obj 74 534 == 0;
#X obj 186 510 > 0;
#X obj 40 465 f;
#X obj 217 423 r \$0-value;
#X obj 217 446 t b f;
#X obj 51 52 r \$0-value;
#X connect 1 0 39 0;
#X connect 2 0 33 0;
#X connect 2 0 34 0;
#X connect 2 1 5 0;
#X connect 2 2 6 0;
#X connect 2 3 7 0;
#X connect 3 0 8 0;
#X connect 4 0 3 0;
#X connect 5 0 3 0;
#X connect 6 0 3 0;
#X connect 7 0 3 0;
#X connect 9 0 21 0;
#X connect 10 0 11 1;
#X connect 11 0 25 0;
#X connect 12 0 26 0;
#X connect 14 0 32 0;
#X connect 15 0 30 0;
#X connect 16 0 31 0;
#X connect 17 0 18 0;
#X connect 18 0 19 0;
#X connect 20 0 15 1;
#X connect 21 0 13 0;
#X connect 21 1 11 0;
#X connect 21 2 23 0;
#X connect 22 0 23 1;
#X connect 23 0 24 0;
#X connect 24 0 26 1;
#X connect 25 0 12 0;
#X connect 26 0 13 1;
#X connect 27 0 28 1;
#X connect 28 0 29 0;
#X connect 29 0 31 1;
#X connect 30 0 16 0;
#X connect 31 0 17 0;
#X connect 32 0 15 0;
#X connect 32 1 28 0;
#X connect 33 0 35 0;
#X connect 34 0 4 0;
#X connect 35 0 3 0;
#X connect 36 0 37 0;
#X connect 36 0 38 0;
#X connect 37 0 33 1;
#X connect 38 0 34 1;
#X connect 39 0 2 0;
#X connect 40 0 41 0;
#X connect 41 0 39 0;
#X connect 41 1 36 0;
#X connect 42 0 9 0;
#X coords 0 -1 1 1 22 176 2 10 10;
