#N canvas 623 272 1030 708 10;
#X obj 12 55 score_bit \$0 \$1 0;
#X floatatom 275 164 5 0 0 0 - #0-select_toggle-set #0-select_toggle
;
#X msg 303 54 score_bit \$0 \$1 1;
#X obj 34 55 score_bit \$0 \$1 1;
#X obj 56 55 score_bit \$0 \$1 2;
#X obj 78 55 score_bit \$0 \$1 3;
#X obj 100 55 score_bit \$0 \$1 4;
#X obj 122 55 score_bit \$0 \$1 5;
#X obj 144 55 score_bit \$0 \$1 6;
#X obj 166 55 score_bit \$0 \$1 7;
#X obj 12 31 bng 22 250 50 0 \$0-select_button \$0-select_button-set
p 4 12 1 24 -191407 -262144 -262130;
#X obj 32 233 hsl 137 15 0 1 0 0 \$0-browser \$0-browser-set empty
-2 -8 0 10 -162280 -262130 -1 0 1;
#X obj 173 233 bng 15 250 50 0 \$0-browser_up \$0-browser_up-set ->
3 8 1 14 -162280 -1 -262130;
#X obj 12 233 bng 15 250 50 0 \$0-browser_down \$0-browser_down-set
<- 1 8 1 14 -162280 -1 -262130;
#X floatatom 276 185 5 0 0 0 - #0-page-set #0-page;
#X obj 220 25 array define -k -yrange 0 7 \$1-score_table 256;
#A 0 0 0 0 0 0 0 0 0 3 3 3 3 3 3 3 3 5 5 5 5 5 5 5 5 2 2 2 2 2 2 2
2 0 0 0 0 0 0 0 0 3 3 3 3 3 3 3 3 5 5 5 5 5 5 5 5 2 2 2 2 2 2 2 2 0
0 0 0 0 0 0 0 3 3 3 3 3 3 3 3 5 5 5 5 5 5 5 5 2 2 2 2 2 2 2 2 0 0 0
0 0 0 0 0 3 3 3 3 3 3 3 3 5 5 5 5 5 5 5 5 2 2 2 2 2 2 2 2 0 0 0 0 0
0 0 0 3 3 3 3 3 3 3 3 5 5 5 5 5 5 5 5 2 2 2 2 2 2 2 2 0 0 0 0 0 0 0
0 3 3 3 3 3 3 3 3 5 5 5 5 5 5 5 5 2 2 2 2 2 2 2 2 0 0 0 0 0 0 0 0 3
3 3 3 3 3 3 3 5 5 5 5 5 5 5 5 2 2 2 2 2 2 2 2 0 0 0 0 0 0 0 0 3 3 3
3 3 3 3 3 5 5 5 5 5 5 5 5 2 2 2 2 2 2 2 2;
#X obj 275 142 bng 15 250 50 0 \$0-update \$0-update-set empty 17 7
0 10 -262144 -1 -1;
#X msg 385 182 const 0;
#X obj 385 205 s \$1-score_table;
#N canvas 643 234 1172 637 browser 0;
#X obj 454 143 f;
#X obj 454 166 + 1;
#X obj 454 189 % 4;
#X obj 454 212 s \$0-select_toggle-set;
#X obj 512 169 r \$0-select_toggle;
#X msg 119 124 -1;
#X msg 233 126 1;
#X obj 264 421 f;
#X obj 264 444 +;
#X obj 262 526 s \$0-browser-set;
#X obj 331 127 + 0.5;
#X obj 331 150 i;
#X obj 331 173 s \$0-page-set;
#X obj 295 393 r \$0-page;
#X obj 262 503 / 7;
#X obj 331 104 * 7;
#X obj 264 467 mod 8;
#X obj 374 519 s \$0-update-set;
#X msg 748 239 color #bbbbbb #ffffff \$1;
#X obj 746 267 s \$0-select_button-set;
#X msg 787 104 symbol #fcfcc4;
#X msg 810 130 symbol #d9ffff;
#X msg 826 156 symbol #e6ffdc;
#X msg 833 182 symbol #fef1d6;
#X obj 716 50 r \$0-select_toggle;
#X obj 716 73 sel 0 1 2 3, f 18;
#X msg 717 108 label p;
#X msg 737 135 label o;
#X msg 775 185 label g;
#X msg 753 162 label v;
#X obj 107 43 r \$0-browser_down;
#X obj 221 45 r \$0-browser_up;
#X obj 448 45 r \$0-select_button;
#X obj 333 44 r \$0-browser;
#X obj 107 66 t b b b;
#X obj 221 68 t b b b;
#X obj 333 67 t b f;
#X obj 448 68 t b b;
#X connect 0 0 1 0;
#X connect 1 0 2 0;
#X connect 2 0 3 0;
#X connect 4 0 0 1;
#X connect 5 0 8 1;
#X connect 6 0 8 1;
#X connect 7 0 8 0;
#X connect 8 0 16 0;
#X connect 10 0 11 0;
#X connect 11 0 12 0;
#X connect 13 0 7 1;
#X connect 14 0 9 0;
#X connect 15 0 10 0;
#X connect 16 0 14 0;
#X connect 18 0 19 0;
#X connect 20 0 18 0;
#X connect 21 0 18 0;
#X connect 22 0 18 0;
#X connect 23 0 18 0;
#X connect 24 0 25 0;
#X connect 25 0 26 0;
#X connect 25 0 20 0;
#X connect 25 1 27 0;
#X connect 25 1 21 0;
#X connect 25 2 29 0;
#X connect 25 2 22 0;
#X connect 25 3 28 0;
#X connect 25 3 23 0;
#X connect 26 0 19 0;
#X connect 27 0 19 0;
#X connect 28 0 19 0;
#X connect 29 0 19 0;
#X connect 30 0 34 0;
#X connect 31 0 35 0;
#X connect 32 0 37 0;
#X connect 33 0 36 0;
#X connect 34 0 17 0;
#X connect 34 1 7 0;
#X connect 34 2 5 0;
#X connect 35 0 17 0;
#X connect 35 1 7 0;
#X connect 35 2 6 0;
#X connect 36 0 17 0;
#X connect 36 1 15 0;
#X connect 37 0 17 0;
#X connect 37 1 0 0;
#X restore 555 249 pd browser;
#X obj 580 124 r \$1-init;
#X msg 580 147 1;
#X obj 580 170 s \$0-stop;
#X obj 277 276 loadbang;
#X msg 277 299 0;
#X obj 267 352 s \$0-select_toggle-set;
#X obj 288 333 s \$0-browser-set;
#X obj 358 288 r \$1-init;
#X obj 36 31 bng 22 250 50 0 \$0-default \$0-default-set d 4 14 1 24
-191407 -262144 -261942;
#X obj 202 497 for 0 8;
#X msg 179 595 0 0 0 0 0 0 0 0 3 3 3 3 3 3 3 3 5 5 5 5 5 5 5 5 2 2
2 2 2 2 2 2, f 16;
#X obj 181 671 array set \$1-score_table;
#X obj 202 520 t b f;
#X obj 226 559 * 32;
#X obj 199 459 r \$0-default;
#X connect 17 0 18 0;
#X connect 20 0 21 0;
#X connect 21 0 22 0;
#X connect 23 0 24 0;
#X connect 24 0 25 0;
#X connect 24 0 26 0;
#X connect 27 0 24 0;
#X connect 29 0 32 0;
#X connect 30 0 31 0;
#X connect 32 0 30 0;
#X connect 32 1 33 0;
#X connect 33 0 31 1;
#X connect 34 0 29 0;
#X coords 0 -1 1 1 180 240 1 10 10;
