#N canvas 636 377 732 470 10;
#X obj 15 26 hsl 81 12 0 1 0 0 \$0-inv \$0-inv-set empty -2 -8 0 10
-162280 -262130 -1 2800 1;
#X obj 15 12 hsl 81 12 0 1 0 0 \$0-velocity \$0-velocity-set empty
-2 -8 0 10 -162280 -262130 -1 3300 1;
#X obj 147 25 r \$1-init;
#X msg 147 77 0.5;
#X obj 147 102 s \$0-velocity-set;
#X obj 185 130 s \$0-inv-set;
#X msg 188 72 0;
#N canvas 756 308 1056 878 makenote 0;
#X obj 177 116 r \$1-count_\$2;
#X obj 176 179 % 8;
#X obj 209 181 div 8;
#X obj 198 211 * 32;
#X obj 178 240 +;
#X obj 177 141 t f f f f f f f f, f 85;
#X obj 356 179 % 8;
#X obj 389 181 div 8;
#X obj 390 224 * 32;
#X obj 370 253 +;
#X obj 516 179 % 8;
#X obj 549 181 div 8;
#X obj 550 224 * 32;
#X obj 530 253 +;
#X obj 696 179 % 8;
#X obj 729 181 div 8;
#X obj 730 224 * 32;
#X obj 710 253 +;
#X obj 370 278 + 8;
#X obj 464 265 + 16;
#X obj 710 278 + 24;
#X obj 157 270 tabread \$1-score_table, f 8;
#X obj 225 302 r \$0-inv;
#X obj 225 327 * 28;
#X obj 225 352 i;
#X obj 156 362 +;
#X obj 156 387 t f f;
#X obj 156 412 % 7;
#X obj 216 473 div 7;
#X obj 216 498 * 12;
#X obj 154 543 +;
#X obj 154 568 +;
#X obj 154 593 +;
#X obj 214 524 r \$1-pitch;
#X obj 363 312 tabread \$1-score_table, f 8;
#X obj 363 367 - 3;
#X obj 363 392 * 12;
#X obj 456 303 tabread \$1-score_table, f 8;
#X obj 456 408 / 7;
#X obj 456 433 * 127;
#X obj 465 463 t f b;
#X obj 462 513 *;
#X obj 462 540 clip 0 127;
#X obj 550 289 r \$0-velocity;
#X obj 527 478 f;
#X obj 713 308 tabread \$1-score_table, f 8;
#X obj 713 388 t f b;
#X obj 723 512 *;
#X obj 768 419 r \$1-time_\$2;
#X obj 747 457 f;
#X obj 171 702 pack 0 0 0;
#X obj 171 727 s \$1-midinote_\$2;
#X obj 713 363 tabread \$1-time;
#X obj 152 470 tabread \$1-m\$2_table, f 7;
#X obj 84 330 bng 15 250 50 0 empty empty empty 17 7 0 10 -262144 -1
-1;
#X obj 127 328 sel 0;
#X floatatom 527 501 5 0 0 0 - - -;
#X obj 550 312 *;
#X floatatom 550 358 5 0 0 0 - - -;
#X obj 456 352 + 1;
#X obj 550 335 + 0.5;
#X connect 0 0 5 0;
#X connect 1 0 4 0;
#X connect 2 0 3 0;
#X connect 3 0 4 1;
#X connect 4 0 21 0;
#X connect 5 0 1 0;
#X connect 5 1 2 0;
#X connect 5 2 6 0;
#X connect 5 3 7 0;
#X connect 5 4 10 0;
#X connect 5 5 11 0;
#X connect 5 6 14 0;
#X connect 5 7 15 0;
#X connect 6 0 9 0;
#X connect 7 0 8 0;
#X connect 8 0 9 1;
#X connect 9 0 18 0;
#X connect 10 0 13 0;
#X connect 11 0 12 0;
#X connect 12 0 13 1;
#X connect 13 0 19 0;
#X connect 14 0 17 0;
#X connect 15 0 16 0;
#X connect 16 0 17 1;
#X connect 17 0 20 0;
#X connect 18 0 34 0;
#X connect 19 0 37 0;
#X connect 20 0 45 0;
#X connect 21 0 55 0;
#X connect 22 0 23 0;
#X connect 23 0 24 0;
#X connect 24 0 25 1;
#X connect 25 0 26 0;
#X connect 26 0 27 0;
#X connect 26 1 28 0;
#X connect 27 0 53 0;
#X connect 28 0 29 0;
#X connect 29 0 30 1;
#X connect 30 0 31 0;
#X connect 31 0 32 0;
#X connect 32 0 50 0;
#X connect 33 0 31 1;
#X connect 34 0 35 0;
#X connect 35 0 36 0;
#X connect 36 0 32 1;
#X connect 37 0 59 0;
#X connect 38 0 39 0;
#X connect 39 0 40 0;
#X connect 40 0 41 0;
#X connect 40 1 44 0;
#X connect 41 0 42 0;
#X connect 42 0 50 1;
#X connect 43 0 57 0;
#X connect 43 0 57 1;
#X connect 44 0 41 1;
#X connect 44 0 56 0;
#X connect 45 0 52 0;
#X connect 46 0 47 0;
#X connect 46 1 49 0;
#X connect 47 0 50 2;
#X connect 48 0 49 1;
#X connect 49 0 47 1;
#X connect 50 0 51 0;
#X connect 52 0 46 0;
#X connect 53 0 30 0;
#X connect 55 0 54 0;
#X connect 55 1 25 0;
#X connect 57 0 60 0;
#X connect 59 0 38 0;
#X connect 60 0 58 0;
#X connect 60 0 44 1;
#X restore 13 73 pd makenote;
#X connect 2 0 3 0;
#X connect 2 0 6 0;
#X connect 3 0 4 0;
#X connect 6 0 5 0;
#X coords 0 -1 1 1 90 30 1 10 10;
